<svg width="24" height="24" viewBox="0 0 24 24" fill="none" xmlns="http://www.w3.org/2000/svg">
<rect width="24" height="24" fill="#F5F5F5"/>
<path d="M23 12C23 18.0751 18.0751 23 12 23C5.92487 23 1 18.0751 1 12C1 5.92487 5.92487 1 12 1C18.0751 1 23 5.92487 23 12Z" fill="white" stroke="#667085" stroke-width="2"/>
<g clip-path="url(#clip0_0_1)">
<rect width="14" height="14" transform="translate(5 5)" fill="white"/>
<path d="M11.0866 6.04906C11.439 5.25857 12.561 5.25857 12.9134 6.04906L13.9752 8.43129C14.1206 8.75732 14.4287 8.98117 14.7837 9.01863L17.3774 9.29239C18.2381 9.38323 18.5848 10.4503 17.9419 11.0297L16.0044 12.7758C15.7393 13.0147 15.6216 13.3769 15.6956 13.7261L16.2368 16.2775C16.4164 17.1242 15.5086 17.7837 14.7589 17.3513L12.4996 16.0482C12.1904 15.8698 11.8096 15.8698 11.5004 16.0482L9.24106 17.3513C8.49135 17.7837 7.58362 17.1242 7.76319 16.2775L8.30436 13.7261C8.37842 13.3769 8.26074 13.0147 7.99557 12.7758L6.05807 11.0297C5.41516 10.4503 5.76188 9.38323 6.62256 9.29239L9.21634 9.01863C9.57133 8.98117 9.87942 8.75732 10.0248 8.43129L11.0866 6.04906Z" fill="#667085"/>
<circle cx="12" cy="12" r="3" fill="white"/>
</g>
<defs>
<clipPath id="clip0_0_1">
<rect width="14" height="14" fill="white" transform="translate(5 5)"/>
</clipPath>
</defs>
</svg>
