<svg width="149" height="36" viewBox="0 0 149 36" fill="none" xmlns="http://www.w3.org/2000/svg">
<mask id="mask0_108_5133" style="mask-type:luminance" maskUnits="userSpaceOnUse" x="8" y="3" width="24" height="33">
<path d="M31.3368 3.91699H8.76685V35.9999H31.3368V3.91699Z" fill="white"/>
</mask>
<g mask="url(#mask0_108_5133)">
<path d="M28.1147 10.3153C26.1411 7.69151 23.4099 5.73654 20.2899 4.71431C17.1698 3.6921 13.8113 3.65184 10.6676 4.59902C7.52399 5.54617 4.74669 7.43515 2.71072 10.0108C0.674728 12.5866 -0.521888 15.725 -0.717569 19.0023C-0.91325 22.2798 -0.098576 25.5383 1.61646 28.3379C3.3315 31.1377 5.8643 33.3435 8.87289 34.6582C11.8815 35.9727 15.221 36.3323 18.4405 35.6886C21.6599 35.0449 24.6044 33.4288 26.8764 31.0586L22.285 26.6578C20.9138 28.0883 19.1367 29.0636 17.1936 29.4522C15.2505 29.8407 13.2349 29.6236 11.4191 28.8303C9.60332 28.037 8.07466 26.7056 7.03956 25.0158C6.00446 23.326 5.51277 21.3595 5.63088 19.3813C5.74897 17.4034 6.47119 15.5092 7.69998 13.9547C8.92879 12.4001 10.605 11.26 12.5023 10.6884C14.3996 10.1167 16.4267 10.141 18.3097 10.758C20.1929 11.3749 21.8412 12.5548 23.0324 14.1384L28.1147 10.3153Z" fill="#7F56D9"/>
</g>
<mask id="mask1_108_5133" style="mask-type:luminance" maskUnits="userSpaceOnUse" x="0" y="3" width="3" height="33">
<path d="M2.6114 3.91699H0V35.9999H2.6114V3.91699Z" fill="white"/>
</mask>
<g mask="url(#mask1_108_5133)">
<path d="M28.8608 10.3153C26.8872 7.69151 24.156 5.73654 21.0359 4.71431C17.9159 3.6921 14.5573 3.65184 11.4137 4.59902C8.27008 5.54617 5.49279 7.43515 3.45681 10.0108C1.42082 12.5866 0.224206 15.725 0.0285248 19.0023C-0.167157 22.2798 0.647518 25.5383 2.36256 28.3379C4.0776 31.1377 6.61039 33.3435 9.61898 34.6582C12.6276 35.9727 15.9671 36.3323 19.1865 35.6886C22.406 35.0449 25.3505 33.4288 27.6225 31.0586L22.4036 26.0564C21.1555 27.3586 19.5379 28.2465 17.7693 28.6001C16.0006 28.9538 14.166 28.7561 12.5132 28.034C10.8603 27.3118 9.4689 26.0999 8.52671 24.5618C7.58452 23.0239 7.13696 21.2337 7.24448 19.4332C7.35197 17.6327 8.00935 15.9086 9.12785 14.4936C10.2464 13.0785 11.7721 12.0408 13.4991 11.5205C15.2261 11.0001 17.0712 11.0222 18.7853 11.5838C20.4993 12.1454 21.9997 13.2194 23.084 14.6608L28.8608 10.3153Z" fill="#7F56D9"/>
</g>
<path d="M8.76677 3.07772C8.76677 1.37794 7.38883 0 5.68905 0C3.98927 0 2.61133 1.37794 2.61133 3.07772C2.61133 4.7775 3.98927 6.15544 5.68905 6.15544C7.38883 6.15544 8.76677 4.7775 8.76677 3.07772Z" fill="#7F56D9"/>
<path d="M44.588 26.2036H33.3366C33.8439 28.0838 35.2466 29.009 37.5447 29.009C39.007 29.009 40.1411 28.5016 40.8872 27.5168L43.9911 29.3074C42.5287 31.4264 40.35 32.5008 37.485 32.5008C35.0079 32.5008 33.0381 31.7547 31.5459 30.2625C30.0537 28.7703 29.3074 26.89 29.3074 24.6219C29.3074 22.3835 30.0537 20.5033 31.5161 19.0111C32.9784 17.489 34.8885 16.7429 37.1865 16.7429C39.3652 16.7429 41.1857 17.489 42.5884 19.0111C44.0209 20.5331 44.7372 22.3835 44.7372 24.6219C44.7372 25.1292 44.6775 25.6366 44.588 26.2036ZM33.2769 23.2192H40.8872C40.4396 21.1897 38.9474 20.2049 37.1865 20.2049C35.1272 20.2049 33.7245 21.3091 33.2769 23.2192ZM51.2746 17.1607V19.7273C51.9909 17.8173 53.7816 16.8623 55.811 16.8623V21.1599C54.6471 21.0107 53.5727 21.2494 52.6475 21.8762C51.7223 22.5029 51.2746 23.5176 51.2746 24.9501V32.083H47.4247V17.1607H51.2746ZM67.0063 17.1607V20.8614H63.6338V27.0691C63.6338 28.6807 64.7978 28.7106 67.0063 28.5912V32.083C61.7238 32.6799 59.7839 31.1578 59.7839 27.0691V20.8614H57.1874V17.1607H59.7839V14.1464L63.6338 12.9825V17.1607H67.0063ZM71.6309 15.37C70.3475 15.37 69.2732 14.2956 69.2732 13.0123C69.2732 11.729 70.3475 10.6248 71.6309 10.6248C72.944 10.6248 74.0184 11.729 74.0184 13.0123C74.0184 14.2956 72.944 15.37 71.6309 15.37ZM73.5708 32.083H69.7208V17.1607H73.5708V32.083ZM85.3913 16.7429C87.0327 16.7429 88.3757 17.2801 89.4203 18.3843C90.4947 19.4886 91.0319 20.9808 91.0319 22.9207V32.083H87.1819V23.3982C87.1819 21.3986 86.018 20.3242 84.2273 20.3242C82.2277 20.3242 80.9444 21.5479 80.9444 24.025V32.083H77.0945V17.1607H80.9444V18.832C81.8696 17.4293 83.3618 16.7429 85.3913 16.7429ZM102.347 10.774V14.4747C100.228 14.3255 99.1839 15.1611 99.1839 17.0115V17.1607H102.347V20.8614H99.1839V32.083H95.334V20.8614H93.1852V17.1607H95.334V17.0115C95.334 12.8034 97.6917 10.5054 102.347 10.774ZM116.272 30.2326C114.75 31.7547 112.87 32.5008 110.661 32.5008C108.453 32.5008 106.573 31.7547 105.05 30.2326C103.528 28.7106 102.782 26.8304 102.782 24.6219C102.782 22.4134 103.528 20.563 105.05 19.0409C106.573 17.5188 108.453 16.7429 110.661 16.7429C112.87 16.7429 114.75 17.5188 116.272 19.0409C117.794 20.563 118.57 22.4134 118.57 24.6219C118.57 26.8304 117.794 28.7106 116.272 30.2326ZM107.766 27.5765C108.542 28.3524 109.497 28.7404 110.661 28.7404C111.825 28.7404 112.78 28.3524 113.556 27.5765C114.332 26.8005 114.72 25.8156 114.72 24.6219C114.72 23.4281 114.332 22.4432 113.556 21.6672C112.78 20.8913 111.825 20.5033 110.661 20.5033C109.497 20.5033 108.542 20.8913 107.766 21.6672C107.02 22.4432 106.632 23.4281 106.632 24.6219C106.632 25.8156 107.02 26.8005 107.766 27.5765Z" fill="#111126"/>
</svg>
