<svg width="149" height="36" viewBox="0 0 149 36" fill="none" xmlns="http://www.w3.org/2000/svg">
<mask id="mask0_108_5343" style="mask-type:luminance" maskUnits="userSpaceOnUse" x="8" y="3" width="24" height="33">
<path d="M31.3368 3.91711H8.76685V36H31.3368V3.91711Z" fill="white"/>
</mask>
<g mask="url(#mask0_108_5343)">
<path d="M28.1147 10.3154C26.1411 7.69163 23.4099 5.73666 20.2899 4.71443C17.1698 3.69222 13.8113 3.65197 10.6676 4.59914C7.52399 5.54629 4.74669 7.43527 2.71072 10.011C0.674728 12.5867 -0.521888 15.7251 -0.717569 19.0024C-0.91325 22.2799 -0.098576 25.5384 1.61646 28.338C3.3315 31.1378 5.8643 33.3437 8.87289 34.6583C11.8815 35.9728 15.221 36.3324 18.4405 35.6887C21.6599 35.045 24.6044 33.4289 26.8764 31.0587L22.285 26.6579C20.9138 28.0884 19.1367 29.0638 17.1936 29.4523C15.2505 29.8408 13.2349 29.6237 11.4191 28.8304C9.60332 28.0371 8.07466 26.7057 7.03956 25.0159C6.00446 23.3262 5.51277 21.3596 5.63088 19.3814C5.74897 17.4035 6.47119 15.5093 7.69998 13.9548C8.92879 12.4002 10.605 11.2601 12.5023 10.6885C14.3996 10.1168 16.4267 10.1411 18.3097 10.7581C20.1929 11.375 21.8412 12.555 23.0324 14.1385L28.1147 10.3154Z" fill="#7F56D9"/>
</g>
<mask id="mask1_108_5343" style="mask-type:luminance" maskUnits="userSpaceOnUse" x="0" y="3" width="3" height="33">
<path d="M2.6114 3.91711H0V36H2.6114V3.91711Z" fill="white"/>
</mask>
<g mask="url(#mask1_108_5343)">
<path d="M28.8608 10.3154C26.8872 7.69163 24.156 5.73666 21.0359 4.71443C17.9159 3.69222 14.5573 3.65197 11.4137 4.59914C8.27008 5.54629 5.49279 7.43527 3.45681 10.011C1.42082 12.5867 0.224206 15.7251 0.0285248 19.0024C-0.167157 22.2799 0.647518 25.5384 2.36256 28.338C4.0776 31.1378 6.61039 33.3437 9.61898 34.6583C12.6276 35.9728 15.9671 36.3324 19.1865 35.6887C22.406 35.045 25.3505 33.4289 27.6225 31.0587L22.4036 26.0566C21.1555 27.3587 19.5379 28.2466 17.7693 28.6002C16.0006 28.9539 14.166 28.7562 12.5132 28.0341C10.8603 27.3119 9.4689 26.1 8.52671 24.5619C7.58452 23.024 7.13696 21.2339 7.24448 19.4333C7.35197 17.6328 8.00935 15.9087 9.12785 14.4937C10.2464 13.0787 11.7721 12.0409 13.4991 11.5206C15.2261 11.0003 17.0712 11.0224 18.7853 11.5839C20.4993 12.1455 21.9997 13.2195 23.084 14.6609L28.8608 10.3154Z" fill="#7F56D9"/>
</g>
<path d="M8.76677 3.07772C8.76677 1.37794 7.38883 0 5.68905 0C3.98927 0 2.61133 1.37794 2.61133 3.07772C2.61133 4.7775 3.98927 6.15544 5.68905 6.15544C7.38883 6.15544 8.76677 4.7775 8.76677 3.07772Z" fill="#7F56D9"/>
<path d="M44.588 26.2035H33.3366C33.8439 28.0837 35.2466 29.0089 37.5447 29.0089C39.007 29.0089 40.1411 28.5015 40.8872 27.5167L43.9911 29.3073C42.5287 31.4263 40.35 32.5007 37.485 32.5007C35.0079 32.5007 33.0381 31.7546 31.5459 30.2624C30.0537 28.7701 29.3074 26.8899 29.3074 24.6217C29.3074 22.3834 30.0537 20.5032 31.5161 19.011C32.9784 17.4889 34.8885 16.7428 37.1865 16.7428C39.3652 16.7428 41.1857 17.4889 42.5884 19.011C44.0209 20.533 44.7372 22.3834 44.7372 24.6217C44.7372 25.1291 44.6775 25.6364 44.588 26.2035ZM33.2769 23.219H40.8872C40.4396 21.1896 38.9474 20.2047 37.1865 20.2047C35.1272 20.2047 33.7245 21.309 33.2769 23.219ZM51.2746 17.1606V19.7272C51.9909 17.8172 53.7816 16.8621 55.811 16.8621V21.1598C54.6471 21.0105 53.5727 21.2493 52.6475 21.876C51.7223 22.5028 51.2746 23.5175 51.2746 24.95V32.0829H47.4247V17.1606H51.2746ZM67.0063 17.1606V20.8613H63.6338V27.069C63.6338 28.6806 64.7978 28.7104 67.0063 28.5911V32.0829C61.7238 32.6798 59.7839 31.1577 59.7839 27.069V20.8613H57.1874V17.1606H59.7839V14.1463L63.6338 12.9824V17.1606H67.0063ZM71.6309 15.3699C70.3475 15.3699 69.2732 14.2955 69.2732 13.0122C69.2732 11.7289 70.3475 10.6246 71.6309 10.6246C72.944 10.6246 74.0184 11.7289 74.0184 13.0122C74.0184 14.2955 72.944 15.3699 71.6309 15.3699ZM73.5708 32.0829H69.7208V17.1606H73.5708V32.0829ZM85.3913 16.7428C87.0327 16.7428 88.3757 17.28 89.4203 18.3842C90.4947 19.4885 91.0319 20.9807 91.0319 22.9206V32.0829H87.1819V23.3981C87.1819 21.3985 86.018 20.3241 84.2273 20.3241C82.2277 20.3241 80.9444 21.5477 80.9444 24.0248V32.0829H77.0945V17.1606H80.9444V18.8319C81.8696 17.4292 83.3618 16.7428 85.3913 16.7428ZM102.347 10.7739V14.4746C100.228 14.3254 99.1839 15.161 99.1839 17.0114V17.1606H102.347V20.8613H99.1839V32.0829H95.334V20.8613H93.1852V17.1606H95.334V17.0114C95.334 12.8033 97.6917 10.5053 102.347 10.7739ZM116.272 30.2325C114.75 31.7546 112.87 32.5007 110.661 32.5007C108.453 32.5007 106.573 31.7546 105.05 30.2325C103.528 28.7104 102.782 26.8302 102.782 24.6217C102.782 22.4132 103.528 20.5629 105.05 19.0408C106.573 17.5187 108.453 16.7428 110.661 16.7428C112.87 16.7428 114.75 17.5187 116.272 19.0408C117.794 20.5629 118.57 22.4132 118.57 24.6217C118.57 26.8302 117.794 28.7104 116.272 30.2325ZM107.766 27.5763C108.542 28.3523 109.497 28.7403 110.661 28.7403C111.825 28.7403 112.78 28.3523 113.556 27.5763C114.332 26.8004 114.72 25.8155 114.72 24.6217C114.72 23.4279 114.332 22.4431 113.556 21.6671C112.78 20.8912 111.825 20.5032 110.661 20.5032C109.497 20.5032 108.542 20.8912 107.766 21.6671C107.02 22.4431 106.632 23.4279 106.632 24.6217C106.632 25.8155 107.02 26.8004 107.766 27.5763Z" fill="#111126"/>
</svg>
