<svg width="280" height="36" viewBox="0 0 280 36" fill="none" xmlns="http://www.w3.org/2000/svg">
<mask id="mask0_108_5342" style="mask-type:luminance" maskUnits="userSpaceOnUse" x="32" y="3" width="24" height="33">
<path d="M55.3368 3.91711H32.7668V36H55.3368V3.91711Z" fill="white"/>
</mask>
<g mask="url(#mask0_108_5342)">
<path d="M52.1147 10.3154C50.1411 7.69163 47.4099 5.73666 44.2899 4.71443C41.1698 3.69222 37.8113 3.65197 34.6676 4.59914C31.524 5.54629 28.7467 7.43527 26.7107 10.011C24.6747 12.5867 23.4781 15.7251 23.2824 19.0024C23.0867 22.2799 23.9014 25.5384 25.6165 28.338C27.3315 31.1378 29.8643 33.3437 32.8729 34.6583C35.8815 35.9728 39.221 36.3324 42.4405 35.6887C45.6599 35.045 48.6044 33.4289 50.8764 31.0587L46.285 26.6579C44.9138 28.0884 43.1367 29.0638 41.1936 29.4523C39.2505 29.8408 37.2349 29.6237 35.4191 28.8304C33.6033 28.0371 32.0747 26.7057 31.0396 25.0159C30.0045 23.3262 29.5128 21.3596 29.6309 19.3814C29.749 17.4035 30.4712 15.5093 31.7 13.9548C32.9288 12.4002 34.605 11.2601 36.5023 10.6885C38.3996 10.1168 40.4267 10.1411 42.3097 10.7581C44.1929 11.375 45.8412 12.555 47.0324 14.1385L52.1147 10.3154Z" fill="#7F56D9"/>
</g>
<mask id="mask1_108_5342" style="mask-type:luminance" maskUnits="userSpaceOnUse" x="24" y="3" width="3" height="33">
<path d="M26.6114 3.91711H24V36H26.6114V3.91711Z" fill="white"/>
</mask>
<g mask="url(#mask1_108_5342)">
<path d="M52.8608 10.3154C50.8872 7.69163 48.156 5.73666 45.0359 4.71443C41.9159 3.69222 38.5573 3.65197 35.4137 4.59914C32.2701 5.54629 29.4928 7.43527 27.4568 10.011C25.4208 12.5867 24.2242 15.7251 24.0285 19.0024C23.8328 22.2799 24.6475 25.5384 26.3626 28.338C28.0776 31.1378 30.6104 33.3437 33.619 34.6583C36.6276 35.9728 39.9671 36.3324 43.1865 35.6887C46.406 35.045 49.3505 33.4289 51.6225 31.0587L46.4036 26.0566C45.1555 27.3587 43.5379 28.2466 41.7693 28.6002C40.0006 28.9539 38.166 28.7562 36.5132 28.0341C34.8603 27.3119 33.4689 26.1 32.5267 24.5619C31.5845 23.024 31.137 21.2339 31.2445 19.4333C31.352 17.6328 32.0094 15.9087 33.1279 14.4937C34.2464 13.0787 35.7721 12.0409 37.4991 11.5206C39.2261 11.0003 41.0712 11.0224 42.7853 11.5839C44.4993 12.1455 45.9997 13.2195 47.084 14.6609L52.8608 10.3154Z" fill="#7F56D9"/>
</g>
<path d="M32.7668 3.07772C32.7668 1.37794 31.3888 0 29.689 0C27.9893 0 26.6113 1.37794 26.6113 3.07772C26.6113 4.7775 27.9893 6.15544 29.689 6.15544C31.3888 6.15544 32.7668 4.7775 32.7668 3.07772Z" fill="#7F56D9"/>
<path d="M68.588 26.2035H57.3366C57.8439 28.0837 59.2466 29.0089 61.5447 29.0089C63.007 29.0089 64.1411 28.5015 64.8872 27.5167L67.9911 29.3073C66.5287 31.4263 64.35 32.5007 61.485 32.5007C59.0079 32.5007 57.0381 31.7546 55.5459 30.2624C54.0537 28.7701 53.3074 26.8899 53.3074 24.6217C53.3074 22.3834 54.0537 20.5032 55.5161 19.011C56.9784 17.4889 58.8885 16.7428 61.1865 16.7428C63.3652 16.7428 65.1857 17.4889 66.5884 19.011C68.0209 20.533 68.7372 22.3834 68.7372 24.6217C68.7372 25.1291 68.6775 25.6364 68.588 26.2035ZM57.2769 23.219H64.8872C64.4396 21.1896 62.9474 20.2047 61.1865 20.2047C59.1272 20.2047 57.7245 21.309 57.2769 23.219ZM75.2746 17.1606V19.7272C75.9909 17.8172 77.7816 16.8621 79.811 16.8621V21.1598C78.6471 21.0105 77.5727 21.2493 76.6475 21.876C75.7223 22.5028 75.2746 23.5175 75.2746 24.95V32.0829H71.4247V17.1606H75.2746ZM91.0063 17.1606V20.8613H87.6338V27.069C87.6338 28.6806 88.7978 28.7104 91.0063 28.5911V32.0829C85.7238 32.6798 83.7839 31.1577 83.7839 27.069V20.8613H81.1874V17.1606H83.7839V14.1463L87.6338 12.9824V17.1606H91.0063ZM95.6309 15.3699C94.3475 15.3699 93.2732 14.2955 93.2732 13.0122C93.2732 11.7289 94.3475 10.6246 95.6309 10.6246C96.944 10.6246 98.0184 11.7289 98.0184 13.0122C98.0184 14.2955 96.944 15.3699 95.6309 15.3699ZM97.5708 32.0829H93.7208V17.1606H97.5708V32.0829ZM109.391 16.7428C111.033 16.7428 112.376 17.28 113.42 18.3842C114.495 19.4885 115.032 20.9807 115.032 22.9206V32.0829H111.182V23.3981C111.182 21.3985 110.018 20.3241 108.227 20.3241C106.228 20.3241 104.944 21.5477 104.944 24.0248V32.0829H101.094V17.1606H104.944V18.8319C105.87 17.4292 107.362 16.7428 109.391 16.7428ZM126.347 10.7739V14.4746C124.228 14.3254 123.184 15.161 123.184 17.0114V17.1606H126.347V20.8613H123.184V32.0829H119.334V20.8613H117.185V17.1606H119.334V17.0114C119.334 12.8033 121.692 10.5053 126.347 10.7739ZM140.272 30.2325C138.75 31.7546 136.87 32.5007 134.661 32.5007C132.453 32.5007 130.573 31.7546 129.05 30.2325C127.528 28.7104 126.782 26.8302 126.782 24.6217C126.782 22.4132 127.528 20.5629 129.05 19.0408C130.573 17.5187 132.453 16.7428 134.661 16.7428C136.87 16.7428 138.75 17.5187 140.272 19.0408C141.794 20.5629 142.57 22.4132 142.57 24.6217C142.57 26.8302 141.794 28.7104 140.272 30.2325ZM131.766 27.5763C132.542 28.3523 133.497 28.7403 134.661 28.7403C135.825 28.7403 136.78 28.3523 137.556 27.5763C138.332 26.8004 138.72 25.8155 138.72 24.6217C138.72 23.4279 138.332 22.4431 137.556 21.6671C136.78 20.8912 135.825 20.5032 134.661 20.5032C133.497 20.5032 132.542 20.8912 131.766 21.6671C131.02 22.4431 130.632 23.4279 130.632 24.6217C130.632 25.8155 131.02 26.8004 131.766 27.5763Z" fill="#111126"/>
</svg>
